#!OML:ASF Y:\EmotionMaleHayes\Project 1\Capture day 1\Session 1\Male1.ASF
:FULLY-SPECIFIED
:DEGREES
688
root 4.36607 11.5327 -0.139291 -174.418 82.9013 -186.882
lowerback 39.5778 0.703594 -3.07091
upperback 12.6582 1.60549 -0.135372
thorax -5.14023 1.44338 0.781503
lowerneck -27.1257 0.131162 1.7305
upperneck 14.3338 -1.03987 2.9144
head 8.8924 -0.0202042 0.58468
rclavicle -2.37548e-014 -2.58917e-014
rhumerus -3.45873 -16.3023 -85.8062
rradius 54.5613
rwrist -30.0311
rhand -11.1631 -34.7092
rfingers 7.12502
rthumb 14.8634 -64.156
lclavicle -2.37548e-014 -2.58917e-014
lhumerus 2.85477 0.48992 82.3265
lradius 53.2213
lwrist 26.6463
lhand -36.9533 -28.1835
lfingers 7.12502
lthumb -10.0296 1.55747
rfemur -80.5273 -17.681 16.0157
rtibia 65.0449
rfoot -205.517 -1.36703
rtoes -17.0078
lfemur -82.0275 16.0812 -20.3119
ltibia 68.7601
lfoot -203.065 13.7894
ltoes -7.11732
689
root 4.37472 11.394 -0.137946 -176.576 82.9124 -188.982
lowerback 39.5275 0.745085 -3.2162
upperback 12.6361 1.59845 -0.149549
thorax -5.14854 1.43653 0.844745
lowerneck -27.0493 0.033554 1.59934
upperneck 13.8361 -1.13306 3.08141
head 8.70946 -0.0588702 0.647654
rclavicle 2.61402e-014 3.89618e-014
rhumerus -3.85689 -15.2515 -85.4027
rradius 54.3553
rwrist -28.9731
rhand -9.74848 -34.3719
rfingers 7.12502
rthumb 16.2258 -63.7129
lclavicle 2.61402e-014 3.89618e-014
lhumerus 2.52881 -0.573692 81.951
lradius 53.0227
lwrist 26.8471
lhand -35.2395 -26.941
lfingers 7.12502
lthumb -8.37588 2.87291
rfemur -81.6293 -18.0485 15.894
rtibia 63.4128
rfoot -205.095 -1.48276
rtoes -15.8079
lfemur -83.0029 16.0171 -20.5595
ltibia 67.3152
lfoot -203.138 13.5313
ltoes -9.81734
690
root 4.37918 11.2604 -0.134531 -176.391 82.9413 -188.769
lowerback 39.5386 0.743631 -3.10654
upperback 12.5776 1.62513 -0.152605
thorax -5.21743 1.44943 0.773416
lowerneck -27.1453 -0.00183201 1.69607
upperneck 13.552 -1.20312 3.07261
head 8.62617 -0.0896622 0.618327
rclavicle 5.397e-014 5.4467e-014
rhumerus -4.02515 -14.2776 -85.1102
rradius 53.8426
rwrist -27.5547
rhand -8.63815 -33.2473
rfingers 7.12502
rthumb 17.2947 -62.4978
lclavicle 5.397e-014 5.4467e-014
lhumerus 2.26747 -1.69401 81.4885
lradius 52.7405
lwrist 26.929
lhand -33.558 -26.1235
lfingers 7.12502
lthumb -6.75289 3.74881
rfemur -82.7388 -18.2069 16.0528
rtibia 61.8286
rfoot -204.588 -1.60848
rtoes -14.5833
lfemur -83.9236 16.0955 -20.4682
ltibia 66.0145
lfoot -203.19 13.3465
ltoes -12.5561
691
root 4.38628 11.1226 -0.121623 -174.914 83.0153 -187.27
lowerback 39.4259 0.787995 -3.08203
upperback 12.57 1.68963 -0.068391
thorax -5.19595 1.47341 0.828256
lowerneck -27.4927 0.0124369 1.86931
upperneck 13.5775 -1.22835 2.92682
head 8.68808 -0.104535 0.537912
rclavicle 8.24956e-015 -1.59028e-015
rhumerus -4.09863 -13.3073 -84.8917
rradius 53.4918
rwrist -25.7936
rhand -7.52743 -32.3032
rfingers 7.12502
rthumb 18.3635 -61.4565
lclavicle 8.24956e-015 -1.59028e-015
lhumerus 2.1095 -2.75243 81.0368
lradius 52.4787
lwrist 27.0659
lhand -32.2463 -25.4513
lfingers 7.12502
lthumb -5.48657 4.45767
rfemur -83.8193 -18.2056 16.3719
rtibia 60.3367
rfoot -204.296 -1.8414
rtoes -14.6605
lfemur -85.1815 16.2737 -20.1046
ltibia 64.4015
lfoot -202.993 13.7441
ltoes -13.053
692
root 4.39597 10.9837 -0.110136 -175.793 83.0822 -188.095
lowerback 39.2919 0.87838 -3.25352
upperback 12.6086 1.7411 -0.0901208
thorax -5.11281 1.49414 0.878915
lowerneck -27.7785 -0.0260532 2.04784
upperneck 13.523 -1.34756 2.90941
head 8.71431 -0.149298 0.486631
rclavicle 2.3059e-014 4.35338e-014
rhumerus -4.37828 -12.5004 -84.7243
rradius 53.6155
rwrist -23.9834
rhand -6.31358 -32.1147
rfingers 7.12502
rthumb 19.5309 -61.1538
lclavicle 2.3059e-014 4.35338e-014
lhumerus 2.07813 -3.90949 80.5219
lradius 52.151
lwrist 26.9667
lhand -31.0445 -24.933
lfingers 7.12502
lthumb -4.32608 5.00277
rfemur -85.375 -18.1425 16.2625
rtibia 58.2491
rfoot -204.272 -2.47605
rtoes -15.2452
lfemur -86.1619 16.3656 -19.9817
ltibia 62.9375
lfoot -202.669 14.5534
ltoes -12.2004
693
root 4.40626 10.8457 -0.106008 -175.462 83.1021 -187.736
lowerback 39.1067 0.888206 -3.23674
upperback 12.6871 1.77748 -0.0132422
thorax -4.97238 1.50821 0.944407
lowerneck -28.0967 -0.100625 1.8964
upperneck 13.4461 -1.42102 3.03815
head 8.7406 -0.173846 0.545279
rclavicle 7.15625e-015 4.07509e-015
rhumerus -4.42585 -11.5478 -84.3822
rradius 53.4903
rwrist -22.4774
rhand -5.42091 -31.8092
rfingers 7.12502
rthumb 20.3889 -60.7588
lclavicle 7.15625e-015 4.07509e-015
lhumerus 2.12438 -4.86834 80.1498
lradius 51.7143
lwrist 26.4045
lhand -29.7853 -24.3149
lfingers 7.12502
lthumb -3.11009 5.64212
rfemur -86.431 -18.2798 16.1691
rtibia 56.8199
rfoot -204.209 -3.28264
rtoes -17.193
lfemur -87.203 16.4137 -19.7504
ltibia 61.4259
lfoot -202.403 15.2966
ltoes -11.1394
